<svg width="83" height="39" viewBox="0 0 83 39" fill="none" xmlns="http://www.w3.org/2000/svg">
<path d="M32.3165 29.7398L31.1673 31.0184C28.8597 33.2921 25.9197 34.8404 22.719 35.4677C19.5183 36.095 16.2007 35.7731 13.1857 34.5426C10.1707 33.3121 7.5938 31.2283 5.78075 28.5548C3.96771 25.8813 3 22.7381 3 19.5226C3 16.3072 3.96771 13.164 5.78075 10.4905C7.5938 7.81693 10.1707 5.73316 13.1857 4.50267C16.2007 3.27218 19.5183 2.95023 22.719 3.57753C25.9197 4.20483 28.8597 5.7532 31.1673 8.02685L51.8327 31.0184C54.1403 33.2921 57.0803 34.8404 60.281 35.4677C63.4817 36.095 66.7993 35.7731 69.8143 34.5426C72.8293 33.3121 75.4062 31.2283 77.2193 28.5548C79.0323 25.8813 80 22.7381 80 19.5226C80 16.3072 79.0323 13.164 77.2193 10.4905C75.4062 7.81693 72.8293 5.73316 69.8143 4.50267C66.7993 3.27218 63.4817 2.95023 60.281 3.57753C57.0803 4.20483 54.1403 5.7532 51.8327 8.02685L50.6835 9.30544" stroke="#2D22AA" stroke-width="5" stroke-linecap="round" stroke-linejoin="round"/>
</svg>
