<svg width="1512" height="938" viewBox="0 0 1512 938" fill="none" xmlns="http://www.w3.org/2000/svg">
<circle cx="95.0172" cy="686.017" r="175" transform="rotate(17.5582 95.0172 686.017)" stroke="url(#paint0_linear_906_3)" stroke-opacity="0.2" stroke-width="50"/>
<g clip-path="url(#clip0_906_3)">
<path d="M1142.83 -88.548C1141.43 -87.3369 1139.77 -86.4554 1137.99 -85.9685C1135.71 -85.9685 1136.02 -85.9686 1143.13 -75.1962C1156.57 -55.1263 1162.57 -30.9661 1160.08 -6.92032C1158.11 41.6315 1140.25 83.2038 1095.92 141.466C1062.32 186.225 1052.18 209.742 1058.39 230.225C1061.72 241.15 1070.19 249.039 1096.98 266.335C1117.91 278.9 1136.33 295.262 1151.3 314.583C1168.12 337.472 1190.6 355.567 1216.52 367.08C1222.88 369.812 1242.55 376.335 1260.41 382.253C1319.42 400.156 1331.38 405.618 1349.69 422.308C1368 438.998 1375.56 458.722 1377.83 510.308C1380.1 561.894 1383.43 576.915 1394.33 592.998C1400.1 601.613 1408.25 608.361 1417.78 612.418C1430.79 618.904 1445.18 622.132 1459.7 621.824C1491.48 623.19 1513.87 618.487 1578.49 596.942C1657.03 570.694 1663.69 568.873 1683.51 566.597C1696.63 563.965 1710.26 565.898 1722.15 572.076C1734.03 578.255 1743.46 588.31 1748.88 600.584C1771.88 639.577 1785.8 654.142 1810.32 666.281C1835.08 676.878 1861.63 682.645 1888.55 683.273C1920.58 684.628 1952.66 682.849 1984.34 677.963L2021.26 673.867H2025.5V665.825C2025.5 661.273 2025.5 657.177 2024.14 656.873C2016.94 656.859 2009.75 657.469 2002.65 658.694C1978.31 662.365 1953.72 664.142 1929.11 664.005C1897.03 665.509 1865.01 659.968 1835.29 647.769C1809.71 635.481 1798.97 621.37 1776.27 570.543C1763.86 542.776 1751 532.155 1726.03 529.728C1707.42 528.059 1679.27 535.948 1628.43 557.039C1588.36 575.849 1546.04 589.413 1502.52 597.398C1451.98 603.77 1420.66 586.018 1411.73 546.266C1409.26 528.88 1408.15 511.329 1408.4 493.769C1407.04 448.253 1405.68 435.81 1399.17 417.907C1394.6 404.388 1386.44 392.375 1375.56 383.163C1355.29 364.349 1334.55 357.218 1283.71 350.693C1215.46 342.197 1195.79 333.549 1160.84 296.376C1147.39 281.3 1132.15 267.949 1115.44 256.625C1094.25 241.452 1087.14 234.776 1082.6 226.28C1072.61 207.314 1079.42 185.466 1108.63 142.376C1143.43 91.2453 1158.26 60.1417 1166.43 20.9969C1170.43 -3.87703 1170.43 -29.2328 1166.43 -54.1069C1163.04 -67.6356 1156.33 -80.0999 1146.91 -90.3687C1145.32 -89.7633 1143.83 -88.8915 1142.52 -87.7896L1142.83 -88.548Z" fill="#EA716E" fill-opacity="0.13"/>
<path d="M1187.47 -86.883C1193.77 -67.3409 1195.88 -46.6784 1193.65 -26.258C1188.89 25.9474 1173.49 76.6096 1148.42 122.577C1131.23 157.89 1128.52 165.62 1128.37 181.231C1128.37 201.692 1134.85 211.543 1163.35 237.31C1207.07 275.958 1222.45 283.84 1260.3 287.325C1285.86 288.463 1311.48 287.5 1336.89 284.445C1360.31 281.432 1384.1 283.922 1406.4 291.72C1433.84 303.997 1450.13 330.52 1458.42 376.899C1462.82 403.191 1465.04 429.806 1465.05 456.469C1466.41 498.906 1467.92 508.606 1475.01 523.308C1484.96 543.011 1506.07 551.801 1535.32 548.468C1564.57 545.133 1587.64 537.403 1644.18 512.395C1700.72 487.388 1716.25 482.083 1739.78 481.325C1752.37 479.434 1765.23 481.598 1776.53 487.505C1787.82 493.414 1796.96 502.763 1802.65 514.214C1808 525.877 1812.73 537.818 1816.82 549.984C1822.1 565.14 1828.28 581.205 1830.69 586.206C1836.43 597.923 1844.6 608.263 1854.67 616.518C1875.92 629.529 1899.85 637.462 1924.63 639.708C1951.22 641.995 1977.95 641.995 2004.54 639.708L2025.5 637.889V622.43H1986.9C1969.3 623.354 1951.66 622.338 1934.28 619.399C1910.96 616.562 1889.02 606.799 1871.25 591.36C1858.66 578.751 1849.52 563.09 1844.72 545.891C1838.18 525.465 1829.59 505.762 1819.09 487.084C1814.09 479.114 1807.49 472.294 1799.69 467.069C1791.9 461.846 1783.09 458.336 1773.85 456.772C1761.61 454.333 1749 454.333 1736.76 456.772C1714.29 460.258 1699.21 465.562 1634.83 492.238C1591.71 509.97 1571.66 514.972 1546.93 514.062C1541.06 514.662 1535.14 513.97 1529.56 512.034C1523.99 510.096 1518.91 506.962 1514.66 502.847C1503.65 492.238 1497.47 472.534 1494.46 438.736C1491.16 399.065 1485.16 359.668 1476.51 320.82C1463.4 272.624 1438.97 253.224 1391.02 253.224C1381.82 253.224 1364.49 254.436 1352.27 255.801L1313.22 260.499C1290.69 263.352 1267.9 263.352 1245.37 260.499C1217.6 254.116 1192.39 239.488 1173 218.516C1160.09 208.721 1151.14 194.563 1147.82 178.656C1144.95 163.498 1147.82 150.919 1165.76 108.027C1185.85 62.4337 1198.67 13.9464 1203.76 -35.6548C1205.37 -52.3825 1204.35 -69.2606 1200.74 -85.6703C1199.53 -90.2171 1199.38 -90.3687 1193.35 -90.3687C1187.32 -90.3687 1187.32 -90.369 1188.22 -87.4894L1187.47 -86.883Z" fill="#EA716E" fill-opacity="0.13"/>
<path d="M1261.31 -87.3352C1261.31 -85.6666 1259.65 -78.0824 1258.44 -70.1947C1257.23 -62.3072 1253.91 -47.2903 1251.19 -36.5207C1248.47 -25.751 1242.73 -4.66701 1238.64 10.6532C1230.79 37.1135 1226.47 64.5055 1225.8 92.1084C1225.8 118.047 1230.33 131.395 1242.27 142.165C1249.71 148.809 1258.7 153.453 1268.41 155.664C1280.57 158.962 1293.22 159.991 1305.74 158.698C1337.47 158.698 1344.58 157.788 1406.23 144.592C1467.89 131.395 1487.53 128.664 1506.72 130.333C1543.44 133.367 1560.52 148.08 1567.17 182.361C1568.23 187.822 1569.44 207.692 1570.34 228.928C1569.52 256.577 1573.35 284.166 1581.68 310.535C1584.88 323.126 1591.18 334.707 1600 344.222C1608.81 353.735 1619.87 360.877 1632.15 364.99C1650.74 371.208 1658.29 371.967 1716.77 372.118C1739.62 371.361 1762.49 372.171 1785.23 374.546C1816.86 379.232 1846.78 391.974 1872.12 411.557C1878.62 416.107 1899.32 434.765 1918.36 452.966C1962.49 495.135 1985.46 512.124 2017.95 525.928L2025.5 529.265V507.725L2016.59 501.809C1990.44 484.366 1957.8 460.4 1934.98 441.894C1908.59 418.883 1879.52 399.171 1848.39 383.193C1813.49 365.749 1789.46 361.197 1721.91 358.619C1698.11 358.704 1674.39 356.057 1651.19 350.731C1637.02 346.984 1624.18 339.306 1614.16 328.575C1604.14 317.843 1597.33 304.494 1594.52 290.057C1588.53 265.255 1586.44 239.665 1588.32 214.214C1588.32 167.8 1587.42 158.395 1581.07 144.288C1575.99 134.68 1568.48 126.573 1559.31 120.777C1540.22 111.869 1518.97 108.657 1498.11 111.524C1471.52 113.99 1445.18 118.709 1419.38 125.631C1353.19 140.799 1347.15 141.709 1314.81 141.709C1301.56 143.293 1288.13 142.105 1275.37 138.221C1267.21 136.213 1259.69 132.152 1253.53 126.42C1247.37 120.687 1242.77 113.471 1240.16 105.456C1237.56 95.5697 1236.69 85.3047 1237.59 75.1193C1237.59 45.5407 1240.31 31.434 1256.17 -23.4759C1262.47 -44.1146 1267.17 -65.2107 1270.23 -86.5765C1270.23 -90.0653 1270.23 -90.3687 1266.3 -90.3687C1262.37 -90.3687 1262.07 -90.369 1261.76 -87.487L1261.31 -87.3352Z" fill="#EA716E" fill-opacity="0.13"/>
<path d="M1319.96 -80.8945C1316.79 -67.8523 1311.66 -48.441 1305.93 -29.181C1299.12 -10.1082 1295.65 10.0049 1295.67 30.2675C1295.52 37.5468 1297.34 44.73 1300.95 51.0441C1303.72 56.3007 1307.56 60.9178 1312.21 64.5998C1316.86 68.2818 1322.22 70.9477 1327.96 72.4273C1338.12 75.2069 1348.69 76.182 1359.19 75.3087C1387.25 75.3087 1393.14 74.2472 1456.96 60.1433C1484.89 52.2516 1513.67 47.821 1542.66 46.9496C1562.14 45.5544 1581.71 47.66 1600.45 53.1673C1653.86 68.3328 1670.46 103.971 1660.8 182.983C1657.23 206.963 1657.23 231.343 1660.8 255.322C1663.53 266.68 1669.15 277.13 1677.1 285.652C1692.19 300.817 1709.84 306.429 1770.34 315.984C1796.08 319.152 1821.55 324.22 1846.54 331.149C1872.34 338.427 1949.59 357.081 1964.68 359.659C1970.87 360.721 1983.84 362.542 1993.35 363.603C2003.8 363.901 2014.08 366.38 2023.52 370.882C2024.88 372.095 2025.18 369.366 2025.18 354.806C2025.9 348.5 2025.39 342.111 2023.68 336.002C2013.67 334.72 2003.59 334.112 1993.5 334.181C1942.82 331.812 1892.39 325.679 1842.62 315.831C1828.43 312.647 1804.59 307.946 1789.5 305.368C1768.04 302.588 1746.85 298.022 1726.14 291.718C1698.07 282.467 1685.55 270.336 1679.06 246.223C1675.86 224.91 1675.86 203.234 1679.06 181.922C1684.94 130.662 1682.38 103.061 1669.25 78.4933C1657.79 57.1101 1638.17 45.4332 1598.64 36.1822C1585.09 33.425 1571.24 32.4562 1557.45 33.3008C1525.96 32.8871 1494.59 37.1803 1464.35 46.0397C1408.23 58.6269 1386.05 61.205 1364.02 61.205C1329.92 59.2335 1313.77 46.0397 1311.81 18.5904C1311.98 -2.07766 1315.54 -22.5756 1322.37 -42.0711C1326.75 -58.9048 1330.37 -74.9801 1330.52 -77.7099C1330.67 -80.4397 1330.52 -82.4111 1325.84 -82.8661C1321.17 -83.321 1320.87 -82.8661 1320.11 -79.5297L1319.96 -80.8945Z" fill="#EA716E" fill-opacity="0.13"/>
<path d="M1461.96 -81.5781C1458.48 -81.5781 1455.6 -80.6796 1455.6 -80.0807C1456.66 -77.7317 1457.93 -75.4772 1459.38 -73.3426C1463.96 -66.9583 1470.06 -61.7876 1477.14 -58.288C1484.22 -54.7886 1492.06 -53.0679 1499.97 -53.2786C1520.72 -52.2063 1541.52 -52.6065 1562.21 -54.4763C1650.94 -59.2676 1711.67 -52.6796 1746.65 -35.0112C1760.06 -27.5457 1771.11 -16.5598 1778.6 -3.26818C1785.55 10.171 1789.13 25.0619 1789.05 40.154C1792.38 86.2714 1796.32 105.138 1807.52 127.597C1816.93 149.093 1834.34 166.192 1856.13 175.362C1872.18 183.823 1890.21 187.905 1908.38 187.191C1922.75 187.182 1937.07 185.575 1951.08 182.399C1971.52 177.49 1992.44 174.828 2013.47 174.464H2025.13V153.053C2025.94 145.485 2025.42 137.837 2023.62 130.442C2012.17 128.957 2000.63 128.257 1989.09 128.346C1930.64 126.849 1907.16 122.806 1877.94 108.881C1865.71 103.6 1854.57 96.1385 1845.08 86.8703C1828.88 71.8971 1824.33 58.571 1822.36 25.63C1822.42 11.9402 1820.43 -1.68227 1816.46 -14.7974C1812 -26.3583 1804.72 -36.647 1795.26 -44.7438C1776.18 -62.2121 1751.68 -72.7689 1725.75 -74.6901C1679.32 -78.0402 1632.71 -78.0402 1586.28 -74.6901C1534.19 -71.8452 1514.51 -73.0432 1499.67 -80.38C1493.89 -82.7895 1487.54 -83.5669 1481.34 -82.6259C1474.07 -82.6259 1465.44 -82.6259 1461.96 -82.6259V-81.5781Z" fill="#EA716E" fill-opacity="0.13"/>
<path d="M929.452 -76.146L914.341 -75.39L921.594 -73.1213C939.036 -68.5974 956.755 -65.2132 974.635 -62.9898C981.226 -62.4249 987.75 -61.2606 994.129 -59.5115C990.479 -59.3742 986.825 -59.6789 983.249 -60.4188C960.11 -62.9632 937.184 -67.1579 914.643 -72.9704C902.705 -76.1461 894.847 -76.9023 897.114 -74.9363C911.799 -69.5168 926.984 -65.5659 942.448 -63.1411L981.738 -57.3947C1009.15 -55.2862 1036 -48.4299 1061.07 -37.1311C1071.92 -32.2173 1081.26 -24.4901 1088.12 -14.7502C1095.71 -4.57229 1099.45 7.96104 1098.7 20.6356C1099.06 36.6618 1094.7 52.4396 1086.16 66.0019C1074.07 89.7436 1062.43 103.959 1014.68 153.106C973.578 195.145 961.941 214.804 962.244 239.604C962.244 252.76 968.44 275.292 971.16 272.722C970.916 269.2 970.152 265.735 968.893 262.438C966.392 254.785 965.316 246.738 965.72 238.697C965.363 230.762 967.138 222.878 970.858 215.862C978.715 197.716 993.524 178.813 1027.98 144.184C1083.74 87.6268 1104.74 52.0897 1103.54 16.5527C1103.57 3.64078 1099.2 -8.89584 1091.14 -18.9843C1078.15 -36.8284 1055.33 -47.8675 1015.59 -55.731C1010.46 -56.5895 1005.41 -57.8537 1000.48 -59.5115C1015.8 -57.4065 1030.96 -54.1719 1045.81 -49.8336C1056.9 -47.1486 1067.35 -42.2918 1076.56 -35.5435C1085.77 -28.7953 1093.55 -20.2891 1099.46 -10.516C1104.36 -1.21108 1106.76 9.21342 1106.41 19.7283C1106.41 53.2994 1087.52 86.4166 1039.77 136.32C1023.74 152.149 1008.6 168.859 994.431 186.374C980.165 201.826 972.423 222.199 972.821 243.233C974.872 256.859 979.431 269.986 986.271 281.946C997.432 297.944 1013.27 310.094 1031.61 316.727C1053.79 325.696 1073.12 340.543 1087.52 359.673C1095.21 371.77 1101.5 384.708 1106.26 398.235C1123.65 443.107 1154.47 481.505 1194.51 508.172C1211.74 519.389 1227.88 532.198 1242.71 546.431C1256.24 562.905 1265.72 582.331 1270.37 603.14C1286.69 657.428 1306.33 679.809 1350.31 693.873C1388.99 706.273 1426.92 707.937 1489.33 699.921C1563.23 690.395 1591.94 693.873 1623.07 715.951C1634.4 723.966 1663.11 746.195 1663.11 747.103C1663.11 748.01 1663.11 747.103 1643.17 735.458C1626.71 724.691 1609.13 715.767 1590.73 708.843C1567.76 702.038 1538.29 702.493 1483.29 709.902C1456.31 714.65 1428.92 716.677 1401.53 715.951C1341.09 713.531 1296.96 698.862 1272.48 672.701C1260.72 658.75 1250.95 643.226 1243.47 626.579C1238.25 616.149 1232.39 606.05 1225.94 596.335C1214.76 581.213 1198.74 569.568 1163.83 551.724C1152.5 545.978 1138.29 537.963 1131.95 534.032C1110.64 519.629 1092.91 500.542 1080.11 478.231C1072.76 461.407 1066.8 444.009 1062.28 426.211C1059.9 417.793 1056.92 409.556 1053.37 401.562C1043.69 382.659 1026.77 369.956 988.236 352.717C971.801 346.589 956.787 337.173 944.111 325.044C928.271 308.233 916.304 288.154 909.052 266.219C904.67 246.018 907.729 224.911 917.665 206.789C926.732 188.642 937.914 175.033 970.858 142.368C1012.56 101.086 1022.69 89.5927 1032.66 71.8997C1038.7 62.2731 1041.71 51.0486 1041.28 39.6896C1039.61 19.5771 1024.5 7.47922 990.955 -0.686729C964.43 -6.29369 937.494 -9.7326 910.412 -10.9697C882.226 -12.5262 854.193 -16.1655 826.543 -21.8576C813.699 -25.4869 814.001 -25.6379 814.001 -17.4721C814.001 -12.0281 814.001 -10.2137 816.418 -9.76009C840.716 -5.40398 865.233 -2.375 889.86 -0.686729C967.231 7.02556 991.409 12.7721 1007.58 27.2893C1023.75 41.8065 1020.42 62.3725 999.116 90.0459C994.582 95.9437 976.902 114.695 959.827 131.48C923.861 167.17 910.411 183.349 899.38 205.73C890.934 220.255 886.065 236.583 885.175 253.365C884.304 261.391 885.023 269.51 887.291 277.258C895.088 304.818 911.376 329.214 933.834 346.971C944.997 353.975 956.609 360.239 968.591 365.723C1006.82 383.869 1019.21 392.338 1029.04 407.61C1038.05 423.049 1043.96 440.105 1046.41 457.816C1048.8 474.08 1053.91 489.826 1061.53 504.393C1078.25 531.769 1103.37 552.99 1133.15 564.88C1176.52 585.144 1188.16 592.101 1201.31 605.861C1213.34 619.582 1223.5 634.837 1231.53 651.228C1242.96 674.065 1261.31 692.698 1283.97 704.458C1309.88 715.964 1337.49 723.165 1365.72 725.779C1399.39 728.552 1433.24 728.046 1466.82 724.268C1486.02 721.957 1505.35 720.947 1524.69 721.243C1574.11 721.243 1574.26 721.243 1647.25 769.332C1671.62 782.872 1696.86 794.794 1722.8 805.02C1748.92 814.95 1776.8 819.378 1804.71 818.025C1813.17 818.025 1836.44 814.85 1856.54 812.127C1914.11 803.961 1933.46 803.81 1969.57 812.127C1988.39 814.429 2006.35 821.337 2021.86 832.24L2025.49 836.323V813.64C2025.49 786.268 2026.85 788.084 2004.18 784.302C1960.75 778.568 1916.83 777.454 1873.16 780.975C1848.03 783.426 1822.73 783.426 1797.6 780.975C1766.52 774.797 1736.76 763.231 1709.66 746.799C1690.58 734.685 1672.17 721.562 1654.5 707.482C1643.86 698.953 1632.54 691.315 1620.65 684.647C1599.37 676.345 1576.35 673.536 1553.71 676.482C1535.12 677.994 1530.13 678.599 1488.88 684.951C1432.96 693.418 1399.27 692.36 1363.76 681.018C1351.11 677.742 1339.29 671.887 1329.02 663.82C1318.74 655.753 1310.25 645.648 1304.06 634.14C1296.2 618.216 1290.6 601.264 1287.44 583.783C1284.74 567.739 1279.65 552.191 1272.33 537.661C1259.38 520.66 1243.39 506.201 1225.18 495.016C1207.57 483.662 1190.9 470.919 1175.32 456.909C1149.16 434.885 1128.47 407.087 1114.87 375.703C1096.58 338.653 1082.08 324.741 1041.28 304.477C1025.9 298.852 1012.21 289.378 1001.53 276.956C993.538 266.38 989.238 253.469 989.294 240.208C988.22 232.377 989.21 224.401 992.164 217.071C998.663 198.32 1010 182.594 1043.54 146.15C1067.59 123.012 1087.97 96.3428 1103.99 67.0605C1129.53 16.0991 1118.19 -29.8724 1074.98 -51.6482C1055.78 -61.3264 1036.14 -66.7705 985.969 -74.4827C967.557 -77.6754 948.798 -78.3364 930.208 -76.4482L929.452 -76.146Z" fill="#EA716E" fill-opacity="0.13"/>
</g>
<defs>
<linearGradient id="paint0_linear_906_3" x1="95.0172" y1="486.017" x2="95.0172" y2="886.017" gradientUnits="userSpaceOnUse">
<stop stop-color="#2D22AA"/>
<stop offset="1" stop-color="#EA716E" stop-opacity="0.23"/>
</linearGradient>
<clipPath id="clip0_906_3">
<rect width="698" height="630" fill="white" transform="translate(814)"/>
</clipPath>
</defs>
</svg>
